# xmcd
#
# Track frame offsets:
#	150
#	17115
#	35815
#	55195
#	73505
#	92045
#	112510
#	134755
#	159390
#	178587
#	196410
#	216662
#
# Disc length: 2969 seconds
# Revision: 2
# Processed by: cddbd v1.5.2PL0 Copyright (c) Steve Scherf et al.
# Submitted via: dBpowerAMP V12.0
#
DISCID=ac0b970c
DTITLE=Grayson Hugh - Blind To Reason
DYEAR=1988
DGENRE=R&B
TTITLE0=Romantic Heart
TTITLE1=Tears Of Love
TTITLE2=Talk It Over
TTITLE3=Bring It All Back
TTITLE4=Two Hearts
TTITLE5=How 'Bout Us
TTITLE6=Blind To Reason
TTITLE7=Finally Found A Friend
TTITLE8=Hard Life
TTITLE9=That's Cool
TTITLE10=Empty As The Wind
TTITLE11=Blind Return
EXTD=
EXTT0=
EXTT1=
EXTT2=
EXTT3=
EXTT4=
EXTT5=
EXTT6=
EXTT7=
EXTT8=
EXTT9=
EXTT10=
EXTT11=
PLAYORDER=
